<?xml version="1.0" encoding="UTF-8" standalone="no"?>
<!DOCTYPE svg PUBLIC "-//W3C//DTD SVG 1.1//EN" "http://www.w3.org/Graphics/SVG/1.1/DTD/svg11.dtd">
<svg width="100%" height="100%" viewBox="0 0 3159 635" version="1.1" xmlns="http://www.w3.org/2000/svg" xmlns:xlink="http://www.w3.org/1999/xlink" xml:space="preserve" xmlns:serif="http://www.serif.com/" style="fill-rule:evenodd;clip-rule:evenodd;stroke-linejoin:round;stroke-miterlimit:2;">
    <g transform="matrix(1.33333,0,0,1.33333,-16.9442,-1282.76)">
        <g id="AUMT" transform="matrix(4.16667,0,0,4.16667,-1300,-1300)">
            <g id="T" transform="matrix(0.487308,0,0,0.487308,837.32,637.044)">
                <path d="M0,-145.436C0.079,-145.885 1.469,-146.213 1.925,-146.213L57.79,-146.213C77.308,-146.213 80.607,-136.292 82.379,-129.44C83.152,-126.449 87.451,-126.614 87.981,-129.657C90.677,-145.137 92.294,-154.286 94.477,-166.869C97.941,-186.839 76.109,-193.198 71.745,-193.198L-144.385,-193.197C-148.225,-193.197 -151.509,-190.439 -152.173,-186.657L-163.541,-125.651C-163.838,-123.961 -161.833,-122.801 -160.549,-123.941C-153.518,-130.184 -148.809,-146.213 -130.924,-146.213L-72.151,-146.213C-71.979,-146.213 -70.733,-146.192 -69.852,-145.141C-69.306,-144.49 -69.033,-143.609 -69.196,-142.69C-69.196,-142.69 -84.716,-59.093 -84.725,-59.058C-94.175,-20.927 -113.141,-4.232 -147.217,-6.74C-147.547,-6.764 -147.879,-6.791 -148.212,-6.819C-149.559,-6.934 -150.337,-4.302 -149.082,-3.797C-35.75,41.768 -19.308,-30.988 -14.74,-60.041L0,-145.436Z" style="fill:rgb(3,4,5);fill-rule:nonzero;"/>
            </g>
            <g id="M" transform="matrix(0.487308,0,0,0.487308,781.701,556.473)">
                <path d="M-20.885,174.033C-58.7,169.786 -75.519,141.575 -71.273,107.094L-48.317,-23.012C-47.871,-25.538 -49.814,-27.853 -52.379,-27.853L-113.226,-27.853C-127.205,-27.853 -140.4,-21.392 -148.971,-10.348L-222.541,84.444C-227.18,90.42 -236.535,89.201 -239.486,82.235L-275.918,-2.444C-280.448,-13.138 -292.428,-28.126 -309.285,-27.853L-371.399,-27.853C-372.931,-27.853 -374.241,-26.753 -374.506,-25.244C-379.717,3.68 -384.962,38.547 -390.796,69.115C-391.223,71.353 -396.201,89.978 -399.327,100.63C-400.426,104.377 -401.352,107.112 -401.658,107.852C-415.487,141.323 -425.989,154.561 -468.496,171.402C-472.609,172.542 -473.549,176.336 -468.471,177.004C-434.544,177.004 -447.78,177.649 -429.895,176.924C-425.681,176.753 -421.589,176.512 -417.618,176.178C-365.296,171.773 -333.942,151.185 -320.643,61.808C-320.345,60.106 -318.011,59.837 -317.337,61.428L-279.349,151.156C-276.924,156.886 -271.306,160.608 -265.084,160.608L-220.006,160.608C-215.288,160.608 -210.834,158.427 -207.941,154.701L-134.938,60.667C-134,59.459 -132.071,60.313 -132.336,61.82L-139.07,101.293C-145.882,150.468 -135.242,177.004 -20.761,177.004C-17.938,177.004 -16.92,174.478 -20.885,174.033Z" style="fill:rgb(3,4,5);fill-rule:nonzero;"/>
            </g>
            <g id="A" transform="matrix(0.487308,0,0,0.487308,384.662,606.992)">
                <path d="M0,-28.083C36.258,-73.069 26.554,-72.804 48.724,-20.774C49.461,-18.975 47.829,-17.107 45.947,-17.598C31.637,-21.336 16.805,-24.111 1.832,-24.261C-0.137,-24.281 -1.225,-26.542 0,-28.083M182.62,69.002C147.03,49.473 136.237,20.508 123.617,-10.697C123.616,-10.699 87.057,-114.921 86.221,-117.155C86.211,-117.18 86.202,-117.204 86.192,-117.229C82.669,-125.874 74.262,-131.528 64.924,-131.528L14.875,-131.528C7.644,-131.528 0.835,-128.122 -3.502,-122.336L-110.991,21.077C-127.576,43.724 -142.091,67.295 -142.849,101.273C-142.887,102.967 -140.556,103.445 -139.911,101.878C-101.538,8.68 19.448,16.133 87.205,72.999C87.477,73.227 87.817,73.352 88.172,73.352C96.23,73.342 181.188,73.238 181.188,73.238C183.444,73.236 184.412,70.373 182.62,69.002" style="fill:rgb(3,4,5);fill-rule:nonzero;"/>
            </g>
            <g id="U" transform="matrix(0.487308,0,0,0.514739,439.581,640.215)">
                <path d="M0,-184.182C-2.114,-185.682 -1.054,-189.012 1.538,-189.014L61.484,-189.063C97.219,-189.063 116.609,-156.809 110.423,-121.613L105.698,-94.722C104.469,-88.756 104.031,-83.384 104.383,-78.605C104.733,-73.823 105.436,-69.611 106.488,-65.973C107.541,-62.331 109.316,-59.174 111.817,-56.499C114.316,-53.823 117.057,-51.586 120.04,-49.79C123.022,-47.991 126.639,-46.545 130.896,-45.447C135.148,-44.35 139.557,-43.561 144.119,-43.079C148.679,-42.596 153.767,-42.355 159.382,-42.355C167.276,-42.355 174.381,-42.817 180.696,-43.738C187.013,-44.659 193.064,-46.324 198.854,-48.736C204.643,-51.147 209.62,-54.283 213.788,-58.145C217.954,-62.003 221.594,-67.003 224.708,-73.145C227.821,-79.283 230.08,-86.476 231.485,-94.722L244.4,-168.216C246.518,-180.271 256.99,-189.063 269.229,-189.063L312.732,-189.063C315.1,-189.063 316.893,-186.924 316.48,-184.593L300.561,-94.722C297.842,-79.371 293.259,-65.885 286.812,-54.263C280.365,-42.641 272.688,-33.123 263.787,-25.709C254.883,-18.296 244.334,-12.268 232.143,-7.619C219.95,-2.968 207.34,0.277 194.315,2.119C181.289,3.96 166.881,4.881 151.093,4.881C143.373,4.881 136.069,4.661 129.185,4.222C122.298,3.784 115.521,3.081 108.856,2.119C102.189,1.151 96.027,-0.141 90.37,-1.765C84.713,-3.386 79.295,-5.316 74.12,-7.552C68.944,-9.79 64.317,-12.421 60.24,-15.448C56.161,-18.475 52.454,-21.894 49.12,-25.709C45.786,-29.525 43.023,-33.823 40.831,-38.604C38.638,-43.385 36.97,-48.582 35.832,-54.197C34.691,-59.81 34.165,-66.016 34.253,-72.815C34.34,-79.611 35.086,-86.914 36.489,-94.722C41.15,-121.038 49.861,-150.006 38.093,-163.611C26.324,-177.216 0,-184.182 0,-184.182" style="fill:rgb(3,4,5);fill-rule:nonzero;"/>
            </g>
        </g>
    </g>
</svg>
